<svg
  xmlns="http://www.w3.org/2000/svg"
  width="286.0736590506053"
  viewBox="4 -40.45000076293945 339.32489013671875 47.45000076293945"
  height="40"
  data-palette-color="currentColor"
>
  <path
    d="M27.6-0.6L18.15-16.45 14.3-16.45Q13.45-16.45 12.98-17.13 12.5-17.8 12.5-18.95L12.5-18.95Q12.5-21.5 14.6-21.5L14.6-21.5 20.45-21.5Q22.3-21.5 23.05-22.55 23.8-23.6 23.8-24.85L23.8-24.85 23.8-31.3Q23.8-32.55 23.05-33.6 22.3-34.65 20.45-34.65L20.45-34.65 9.9-34.65 9.9-2.05Q9.9 0.35 6.95 0.35L6.95 0.35Q4 0.35 4-2.05L4-2.05 4-36.7Q4-38.5 4.93-39.1 5.85-39.7 7.15-39.7L7.15-39.7 21.7-39.7Q23-39.7 24.4-39.15 25.8-38.6 27.1-37.75L27.1-37.75 27.05-37.75Q28.35-36.8 29.05-35.27 29.75-33.75 29.75-31.75L29.75-31.75 29.75-24.45Q29.75-20.4 27.05-18.4L27.05-18.4Q26.5-18 25.88-17.65 25.25-17.3 24.6-16.95L24.6-16.95 32.6-3.75Q32.75-3.5 32.9-3.1 33.05-2.7 33.05-2.45L33.05-2.45Q33.05-1.25 31.35-0.15L31.35-0.15 31.35-0.2Q30.2 0.5 29.4 0.5L29.4 0.5Q28.25 0.5 27.55-0.65L27.55-0.65 27.6-0.6ZM42.75-22.15L42.75-8Q42.75-6.8 43.52-5.75 44.3-4.7 46.15-4.7L46.15-4.7 52.4-4.7Q54.25-4.7 55.02-5.63 55.8-6.55 55.8-7.75L55.8-7.75 55.8-8.3Q55.8-10.65 58.55-10.65L58.55-10.65Q61.3-10.65 61.3-8.3L61.3-8.3 61.3-7.7Q61.3-5.6 60.62-4.25 59.95-2.9 58.6-1.9L58.6-1.9Q55.95 0 53.3 0L53.3 0 44.9 0Q42.25 0 39.75-1.9L39.75-1.9Q38.55-2.9 37.9-4.42 37.25-5.95 37.25-7.95L37.25-7.95 37.25-22.2Q37.25-26.25 39.75-28.2L39.75-28.2Q41-29.1 42.32-29.63 43.65-30.15 44.9-30.15L44.9-30.15 53.3-30.15Q54.5-30.15 55.95-29.68 57.4-29.2 58.65-28.4L58.65-28.4Q59.85-27.55 60.57-26.05 61.3-24.55 61.3-22.5L61.3-22.5 61.3-15.75Q61.3-14.6 60.62-13.7 59.95-12.8 58.15-12.8L58.15-12.8 47.35-12.8Q45.55-12.8 45.45-15.15L45.45-15.15Q45.45-17.5 47.35-17.5L47.35-17.5 55.85-17.5 55.8-22.15Q55.8-23.4 55.02-24.43 54.25-25.45 52.4-25.45L52.4-25.45 46.15-25.45Q44.3-25.45 43.52-24.43 42.75-23.4 42.75-22.15L42.75-22.15ZM81.75 0L75.2 0Q73.65 0 72.25-0.43 70.85-0.85 69.55-1.65L69.55-1.65 69.55-1.6Q67.1-3.15 67.1-7.3L67.1-7.3 67.1-9.75Q67.1-11.8 67.82-13.33 68.55-14.85 69.85-15.75L69.85-15.75 69.8-15.75Q71.05-16.6 72.45-17.03 73.85-17.45 75.15-17.45L75.15-17.45 86.2-17.45 86.2-22.1Q86.2-23.35 85.42-24.38 84.65-25.4 82.8-25.4L82.8-25.4 76.95-25.4Q75.05-25.4 74.32-24.48 73.6-23.55 73.6-22.3L73.6-22.3 73.6-21.9Q73.6-19.3 70.8-19.3L70.8-19.3Q68-19.3 68-21.9L68-21.9 68-22.35Q68-24.4 68.72-25.8 69.45-27.2 70.7-28.15L70.7-28.15 70.65-28.15Q71.95-29 73.37-29.55 74.8-30.1 76.1-30.1L76.1-30.1 83.7-30.1Q84.95-30.1 86.37-29.55 87.8-29 89.05-28.15L89.05-28.15 89-28.15Q90.3-27.2 91-25.68 91.7-24.15 91.7-22.15L91.7-22.15 91.7-2.1Q91.7 0.3 88.95 0.3L88.95 0.3Q88.4 0.3 87.92 0.25 87.45 0.2 87.07-0.03 86.7-0.25 86.47-0.68 86.25-1.1 86.25-1.8L86.25-1.8 86.2-12.75 76.1-12.75Q75-12.75 74.4-12.5 73.8-12.25 73.45-11.7L73.45-11.7Q73.05-10.85 72.87-10.38 72.7-9.9 72.7-9.3L72.7-9.3 72.7-7.35Q72.7-6.05 73.47-5.38 74.25-4.7 76.15-4.7L76.15-4.7 81.75-4.7Q83.6-4.7 83.6-2.35L83.6-2.35Q83.6-1.35 83.15-0.68 82.7 0 81.75 0L81.75 0ZM122.19-10.3L122.19-7.95Q122.19-3.85 119.49-1.9L119.49-1.9Q116.84 0 114.19 0L114.19 0 105.79 0Q103.14 0 100.64-1.9L100.64-1.9Q99.44-2.9 98.79-4.42 98.14-5.95 98.14-7.95L98.14-7.95 98.14-22.2Q98.14-26.25 100.64-28.2L100.64-28.2Q101.89-29.1 103.22-29.63 104.54-30.15 105.79-30.15L105.79-30.15 114.19-30.15Q115.39-30.15 116.84-29.68 118.29-29.2 119.54-28.4L119.54-28.4Q120.74-27.55 121.47-26.05 122.19-24.55 122.19-22.5L122.19-22.5 122.19-20Q122.19-17.6 119.44-17.6L119.44-17.6Q116.69-17.6 116.69-20L116.69-20 116.69-22.15Q116.69-23.4 115.92-24.43 115.14-25.45 113.29-25.45L113.29-25.45 107.04-25.45Q105.19-25.45 104.42-24.43 103.64-23.4 103.64-22.15L103.64-22.15 103.64-8Q103.64-6.8 104.42-5.75 105.19-4.7 107.04-4.7L107.04-4.7 113.29-4.7Q115.14-4.7 115.92-5.75 116.69-6.8 116.69-8L116.69-8 116.69-10.3Q116.69-12.65 119.44-12.65L119.44-12.65Q122.19-12.65 122.19-10.3L122.19-10.3ZM139.14-25.4L134.99-25.4 134.99-7.2Q134.99-5.9 135.54-5.2 136.09-4.5 137.89-4.5L137.89-4.5 139.19-4.5Q141.14-4.5 141.04-2.2L141.04-2.2Q141.04 0.15 139.19 0.15L139.19 0.15 137.54 0.15Q135.94 0.15 134.54-0.28 133.14-0.7 131.84-1.5L131.84-1.5 131.84-1.45Q129.39-3.05 129.39-7.15L129.39-7.15 129.39-25.4 127.44-25.4Q125.64-25.4 125.54-27.75L125.54-27.75Q125.54-30.1 127.44-30.1L127.44-30.1 129.39-30.1 129.39-35.45Q129.39-37.85 132.24-37.85L132.24-37.85Q134.99-37.85 134.99-35.45L134.99-35.45 134.99-30.1 139.14-30.1Q141.09-30.1 140.99-27.75L140.99-27.75Q140.99-25.4 139.14-25.4L139.14-25.4ZM155.09-5L163.34-5Q164.69-5 165.84-5.73 166.99-6.45 166.99-8.15L166.99-8.15 166.89-31.3Q166.89-32.55 166.14-33.6 165.39-34.65 163.49-34.65L163.49-34.65 155.09-34.65Q153.24-34.65 152.46-33.6 151.69-32.55 151.69-31.3L151.69-31.3 151.69-8.4Q151.69-7.1 152.46-6.05 153.24-5 155.09-5L155.09-5ZM163.74-11.6L163.74-11.6Q163.74-9.85 162.54-8.65 161.34-7.45 159.59-7.45L159.59-7.45Q157.89-7.45 156.69-8.65 155.49-9.85 155.49-11.6L155.49-11.6Q155.49-13.3 156.69-14.5 157.89-15.7 159.59-15.7L159.59-15.7Q161.34-15.7 162.54-14.5 163.74-13.3 163.74-11.6ZM171.59-3.65L174.79-0.4Q175.29 0.1 175.29 0.85L175.29 0.85Q175.29 1.25 175.09 1.65 174.89 2.05 174.44 2.45L174.44 2.45Q173.54 3.4 172.84 3.4L172.84 3.4Q172.29 3.4 171.64 2.75L171.64 2.75 168.19-0.7Q166.24 0.05 164.79 0.05L164.79 0.05 153.89 0.05Q152.59 0.05 151.21-0.48 149.84-1 148.54-1.95L148.54-1.95Q145.84-3.95 145.84-8L145.84-8 145.84-31.75Q145.84-33.75 146.54-35.27 147.24-36.8 148.54-37.75L148.54-37.75 148.49-37.75Q149.74-38.6 151.16-39.15 152.59-39.7 153.89-39.7L153.89-39.7 164.79-39.7Q166.04-39.7 167.44-39.15 168.84-38.6 170.14-37.75L170.14-37.75 170.09-37.75Q171.39-36.8 172.09-35.27 172.79-33.75 172.79-31.75L172.79-31.75 172.79-8Q172.79-6.8 172.46-5.7 172.14-4.6 171.59-3.65L171.59-3.65ZM204.49-28L204.49-7.95Q204.49-5.95 203.79-4.4 203.09-2.85 201.79-1.9L201.79-1.9 201.84-1.9Q200.59-1.05 199.19-0.53 197.79 0 196.49 0L196.49 0 188.44 0Q187.19 0 185.76-0.53 184.34-1.05 183.09-1.9L183.09-1.9 183.14-1.9Q181.84-2.85 181.14-4.4 180.44-5.95 180.44-7.95L180.44-7.95 180.44-28Q180.44-30.4 183.19-30.4L183.19-30.4Q185.94-30.4 185.94-28L185.94-28 185.94-8.35Q185.94-6.95 186.64-5.9L186.64-5.9Q187.29-4.7 189.34-4.7L189.34-4.7 195.59-4.7Q197.59-4.7 198.24-5.9L198.24-5.9 198.19-5.85Q198.99-7.05 198.99-8.35L198.99-8.35 198.99-28Q198.99-30.4 201.74-30.4L201.74-30.4Q204.49-30.4 204.49-28L204.49-28ZM216.23-22.15L216.23-8Q216.23-6.8 217.01-5.75 217.78-4.7 219.63-4.7L219.63-4.7 225.88-4.7Q227.73-4.7 228.51-5.63 229.28-6.55 229.28-7.75L229.28-7.75 229.28-8.3Q229.28-10.65 232.03-10.65L232.03-10.65Q234.78-10.65 234.78-8.3L234.78-8.3 234.78-7.7Q234.78-5.6 234.11-4.25 233.43-2.9 232.08-1.9L232.08-1.9Q229.43 0 226.78 0L226.78 0 218.38 0Q215.73 0 213.23-1.9L213.23-1.9Q212.03-2.9 211.38-4.42 210.73-5.95 210.73-7.95L210.73-7.95 210.73-22.2Q210.73-26.25 213.23-28.2L213.23-28.2Q214.48-29.1 215.81-29.63 217.13-30.15 218.38-30.15L218.38-30.15 226.78-30.15Q227.98-30.15 229.43-29.68 230.88-29.2 232.13-28.4L232.13-28.4Q233.33-27.55 234.06-26.05 234.78-24.55 234.78-22.5L234.78-22.5 234.78-15.75Q234.78-14.6 234.11-13.7 233.43-12.8 231.63-12.8L231.63-12.8 220.83-12.8Q219.03-12.8 218.93-15.15L218.93-15.15Q218.93-17.5 220.83-17.5L220.83-17.5 229.33-17.5 229.28-22.15Q229.28-23.4 228.51-24.43 227.73-25.45 225.88-25.45L225.88-25.45 219.63-25.45Q217.78-25.45 217.01-24.43 216.23-23.4 216.23-22.15L216.23-22.15ZM246.53-22.75L246.53-2.1Q246.53 0.3 243.78 0.3L243.78 0.3Q240.93 0.3 240.93-2.1L240.93-2.1 240.93-22.8Q240.93-26.9 243.38-28.5L243.38-28.5Q245.83-30.1 249.03-30.1L249.03-30.1 254.73-30.1Q256.58-30.1 256.58-27.75L256.58-27.75Q256.68-25.4 254.73-25.4L254.73-25.4 249.43-25.4Q247.63-25.4 247.08-24.7 246.53-24 246.53-22.75L246.53-22.75ZM265.03 7L262.43 7Q260.68 7 260.58 4.65L260.58 4.65Q260.58 2.3 262.43 2.3L262.43 2.3 264.63 2.3Q266.38 2.3 266.93 1.25L266.93 1.25 267.63-0.6 267.88-1.4 258.13-26.95 258.13-26.9Q257.73-28.1 258.3-28.95 258.88-29.8 260.08-30.2L260.08-30.2Q260.98-30.45 261.53-30.45L261.53-30.45Q262.98-30.45 263.33-28.75L263.33-28.75 267.28-18.9 270.63-10.7 275.98-28.65Q276.43-30.45 278.08-30.45L278.08-30.45Q278.48-30.45 279.38-30.2L279.38-30.2Q280.58-29.85 281.1-29.05 281.63-28.25 281.33-27.15L281.33-27.15Q279.08-19.5 276.75-11.75 274.43-4 272.18 3.6L272.18 3.6Q271.93 4.15 271.4 4.73 270.88 5.3 270.03 5.83 269.18 6.35 267.93 6.68 266.68 7 265.03 7L265.03 7ZM291.93-21.2L307.18-39.1Q307.93-40 308.88-40L308.88-40Q309.93-40 311.03-39.05L311.03-39.05Q311.58-38.5 311.95-37.95 312.33-37.4 312.33-36.85L312.33-36.85Q312.33-35.95 311.68-35.3L311.68-35.3 304.98-27.5 291.93-12.15 291.93-2.1Q291.93 0.3 288.93 0.3L288.93 0.3Q285.98 0.3 285.98-2.1L285.98-2.1 285.98-37.55Q285.98-39.95 288.93-39.95L288.93-39.95Q291.93-39.95 291.93-37.55L291.93-37.55 291.93-21.2ZM309.58-1.5L300.08-15.35Q299.58-16.05 299.58-17.05L299.58-17.05Q299.58-18.55 300.83-19.45L300.83-19.45 300.78-19.45Q301.78-20.15 302.78-20.15L302.78-20.15Q303.73-20.15 304.38-19.05L304.38-19.05 314.03-4.95 313.98-5Q314.43-4.3 314.43-3.5L314.43-3.5Q314.43-2.2 313.13-1.2L313.13-1.2 313.18-1.2Q312.63-0.85 312.13-0.65 311.63-0.45 311.23-0.45L311.23-0.45Q310.83-0.45 310.4-0.75 309.98-1.05 309.58-1.5L309.58-1.5ZM323.77-27.9L323.77-2.1Q323.77 0.3 321.02 0.3L321.02 0.3Q318.22 0.3 318.22-2.1L318.22-2.1 318.22-27.9Q318.22-30.3 321.02-30.3L321.02-30.3Q323.77-30.3 323.77-27.9L323.77-27.9ZM324.82-36.6L324.82-36.6Q324.82-35 323.72-33.9 322.62-32.8 321.02-32.8L321.02-32.8Q319.42-32.8 318.3-33.9 317.17-35 317.17-36.6L317.17-36.6Q317.17-38.25 318.3-39.35 319.42-40.45 321.02-40.45L321.02-40.45Q322.62-40.45 323.72-39.35 324.82-38.25 324.82-36.6ZM341.42-25.4L337.27-25.4 337.27-7.2Q337.27-5.9 337.82-5.2 338.37-4.5 340.17-4.5L340.17-4.5 341.47-4.5Q343.42-4.5 343.32-2.2L343.32-2.2Q343.32 0.15 341.47 0.15L341.47 0.15 339.82 0.15Q338.22 0.15 336.82-0.28 335.42-0.7 334.12-1.5L334.12-1.5 334.12-1.45Q331.67-3.05 331.67-7.15L331.67-7.15 331.67-25.4 329.72-25.4Q327.92-25.4 327.82-27.75L327.82-27.75Q327.82-30.1 329.72-30.1L329.72-30.1 331.67-30.1 331.67-35.45Q331.67-37.85 334.52-37.85L334.52-37.85Q337.27-37.85 337.27-35.45L337.27-35.45 337.27-30.1 341.42-30.1Q343.37-30.1 343.27-27.75L343.27-27.75Q343.27-25.4 341.42-25.4L341.42-25.4Z"
    opacity="1"
    transform="matrix(1,0,0,1,0,0)"
    fill="currentColor"
    data-fill-palette-color="primary"
  ></path>
</svg>
